<svg width="260" height="94" viewBox="0 0 260 94" fill="none" xmlns="http://www.w3.org/2000/svg">
<path fill-rule="evenodd" clip-rule="evenodd" d="M103.973 1.00759C101.882 2.36383 92.8757 11.3935 89.9198 15.0963C88.6113 16.7358 84.4399 22.0689 80.6502 26.9478L73.7598 35.8184L72.6238 34.7055C71.2284 33.3376 70.2541 32.8104 68.3291 32.3806C66.5433 31.982 63.8232 32.5627 61.9455 33.7432C60.5517 34.6197 58.6343 36.6572 57.9342 38.0059C56.9397 39.9214 57.6259 42.5672 58.7785 41.2613C59.0449 40.9595 59.5799 40.0758 59.9672 39.2977C61.6545 35.9071 63.4489 34.581 66.3466 34.5832C68.3067 34.5845 69.5834 35.2484 70.879 36.9407C71.6138 37.9002 71.7009 38.1948 71.3948 38.683C70.5675 40.0025 60.2424 53.2251 57.4131 56.5886C51.5103 63.6056 43.7067 70.2859 38.3449 72.9116C32.3577 75.8442 24.3339 76.7697 18.1662 75.2396C11.8171 73.6646 7.20292 68.5163 5.13525 60.7001C4.46833 58.1797 4.33735 56.9719 4.33103 53.2876C4.32251 48.5257 4.73945 45.9996 6.15346 42.2481C8.96885 34.7787 15.3426 28.6826 22.585 26.5325C25.0153 25.811 29.6036 25.8041 31.5172 26.5193C34.671 27.6973 37.0773 30.3535 38.241 33.9409C38.7681 35.566 38.919 36.8857 38.961 40.2408C39.019 44.8418 39.3545 46.0383 40.8636 47.0233C42.5446 48.1201 43.7399 46.608 44.0826 42.9498C44.3061 40.5684 43.7402 38.3878 41.9111 34.5819C40.8771 32.4303 40.1282 31.4174 38.0668 29.383C33.9198 25.2904 30.5164 23.893 24.6959 23.893C16.6686 23.893 11.6324 26.2455 6.29455 32.4891C1.78298 37.766 0.00315919 43.1246 2.92461e-06 51.4388C-0.00315334 60.0286 2.54837 66.5643 7.76284 71.3237C11.9992 75.1899 16.9031 76.9989 23.8286 77.2491C33.8358 77.611 40.285 75.0148 49.9473 66.7356C53.7247 63.4987 54.6678 62.41 64.5233 49.908C68.8508 44.4183 72.4906 39.9264 72.6118 39.9264C73.2743 39.9264 73.6976 42.2201 73.6976 45.8091V49.6483L72.2403 51.1536C69.5982 53.8831 65.6491 60.497 65.6491 62.1925C65.6491 63.405 66.4748 64.4482 67.434 64.4482C69.1137 64.4482 70.6572 61.9394 72.4629 56.2742C73.6209 52.64 74.854 50.4406 76.3132 49.4056C77.8433 48.3204 81.1148 46.5413 81.1148 46.7944C81.1148 46.9217 80.4817 48.9061 79.7081 51.2039C77.9693 56.3676 77.5107 59.3451 77.7228 64.0926C77.9986 70.2661 79.6197 74.6275 82.354 76.5518C83.5442 77.3894 83.9494 77.495 85.9717 77.495C87.985 77.495 88.5396 77.3519 90.7537 76.262C95.0238 74.16 97.3181 71.341 99.1368 65.9625C102.158 57.0281 100.22 47.6819 94.814 45.1184C94.1366 44.7971 92.4812 44.3866 91.1359 44.2064C89.2895 43.9587 88.6898 43.76 88.6902 43.3956C88.6908 42.7562 93.9034 30.7496 100.842 15.4047C106.665 2.52794 107.535 0 106.144 0C105.804 0 104.827 0.453334 103.973 1.00759ZM104.915 1.83882C105.2 2.29718 103.154 6.16565 98.5412 13.8941C93.0657 23.0674 89.9656 28.6263 85.3391 37.5686C81.9989 44.0247 81.6713 44.5353 80.4122 45.242C79.6702 45.6582 78.4951 46.4483 77.8007 46.9978C77.1063 47.547 76.0171 48.3817 75.3802 48.8523L74.2218 49.7081L74.6795 48.1969C75.4443 45.6717 75.5607 42.5603 75.0005 39.6155L74.493 36.947L75.2804 35.8429C78.7738 30.9461 90.3396 16.2585 93.6029 12.5753C98.2587 7.32037 103.902 1.57191 104.405 1.57191C104.595 1.57191 104.824 1.692 104.915 1.83882ZM208.004 24.3969C202.642 25.8324 199.1 29.9203 196.949 37.1574L196.079 40.0836L193.132 40.1748C190.147 40.2675 189.705 40.4477 189.695 41.5769C189.691 42.062 190.04 42.1271 192.65 42.1271H195.61L192.759 53.4841L189.908 64.8408L146.164 64.7232L102.42 64.6054V65.7057V66.806L145.739 66.8859C169.708 66.9299 189.059 67.0865 189.059 67.2364C189.059 67.3854 188.78 67.8608 188.439 68.293C187.377 69.637 186.229 69.9039 182.379 69.7018C180.462 69.6009 178.566 69.643 178.164 69.7948C176.461 70.4396 177.087 72.6526 179.132 73.215C180.668 73.6375 183.659 73.1238 185.874 72.0568C186.903 71.5614 188.531 70.3227 189.78 69.0853L191.922 66.9632H225.525H259.128V65.8629V64.7625H226.145C208.005 64.7625 193.162 64.7163 193.162 64.6594C193.162 64.6028 193.539 63.6481 193.998 62.5373C194.459 61.427 195.85 56.4157 197.092 51.4013L199.349 42.2843L202.738 42.195C206.037 42.1079 206.135 42.0846 206.431 41.31C206.598 40.8724 206.734 40.4527 206.734 40.3776C206.734 40.3024 205.243 40.2408 203.42 40.2408C200.472 40.2408 200.107 40.1801 200.113 39.6906C200.125 38.7069 201.879 32.2624 202.529 30.8094C203.399 28.8674 204.681 27.4361 205.764 27.199C206.263 27.0899 207.821 27.2179 209.225 27.4832C212.042 28.0155 213.171 27.8199 213.515 26.7403C213.848 25.6956 213.377 24.81 212.238 24.3359C210.933 23.793 210.223 23.8034 208.004 24.3969ZM110.794 33.9915C110.018 34.3342 109.332 34.6649 109.271 34.7269C109.209 34.7885 108.835 36.019 108.44 37.4614L107.723 40.0836L105.657 40.1757C103.832 40.2572 103.569 40.349 103.404 40.9617C103.301 41.3433 103.215 41.7615 103.213 41.8913C103.211 42.0211 104.116 42.1271 105.226 42.1271H107.243L105.545 48.8077C103.156 58.2061 103.234 60.6888 105.916 60.6687C107.273 60.6586 109.211 59.6831 112.615 57.2969C114.281 56.1293 115.773 55.0859 115.929 54.9781C116.094 54.8649 116.066 54.5068 115.863 54.1289C115.524 53.4967 115.43 53.5306 112.974 55.1679C110.219 57.0042 108.821 57.4981 108.088 56.8923C107.392 56.317 107.48 55.704 109.267 48.6618L110.92 42.1497L113.592 42.0598C116.209 41.9718 116.268 41.9523 116.495 41.1054L116.726 40.2408H114.049C111.648 40.2408 111.389 40.1842 111.536 39.6906C111.935 38.3476 112.993 33.9733 112.993 33.6649C112.993 33.187 112.424 33.2716 110.794 33.9915ZM237.754 38.7475C235.946 40.3845 234.721 41.7281 233.147 43.8027C231.823 45.5469 231.841 45.6557 232.806 41.7674C233.496 38.9899 233.431 38.6689 232.181 38.6689C230.747 38.6689 229.055 39.4058 226.777 41.0227C224.132 42.8998 223.579 43.5525 224.102 44.18C224.465 44.6157 224.661 44.5302 225.802 43.4365C227.363 41.941 228.468 41.3282 228.874 41.7328C229.055 41.9133 228.916 43.158 228.51 44.9842C227.81 48.1327 225.082 58.9446 224.808 59.6554C224.68 59.9887 225.068 60.0588 226.628 59.9843L228.61 59.8896L229.639 55.4883C231.022 49.5773 231.498 48.2802 233.123 46.0022C234.93 43.4682 236.383 42.3097 239.008 41.3106C241.437 40.3861 242.084 39.872 242.084 38.8666C242.084 37.8826 241.5 37.4114 240.278 37.4114C239.487 37.4114 238.868 37.7386 237.754 38.7475ZM257.866 37.9486C257.605 38.0442 257.179 38.297 256.919 38.5108C256.659 38.7245 255.238 38.9874 253.763 39.0946C251.678 39.2461 250.646 39.502 249.136 40.2421C244.58 42.4751 240.118 48.7631 239.209 54.2308C238.778 56.8285 239.162 58.7362 240.356 59.9258C242.056 61.6187 245.633 60.37 249.265 56.8169C250.176 55.925 250.922 55.2711 250.922 55.3635C250.922 55.4559 250.7 56.2742 250.43 57.1825C250.159 58.0904 249.981 59.2128 250.035 59.6759C250.12 60.4062 250.295 60.5316 251.349 60.6181C252.174 60.6853 253.098 60.458 254.218 59.9123C255.934 59.0757 259.53 56.162 259.698 55.4713C259.9 54.6426 259.072 54.6939 257.939 55.5804C257.291 56.0875 256.283 56.7461 255.699 57.0439C253.949 57.9361 253.849 57.4648 254.788 52.7412C255.478 49.2736 257.885 40.299 258.667 38.2759C258.885 37.7144 258.705 37.6412 257.866 37.9486ZM126.092 38.6683C124.484 39.0301 122.037 40.431 120.309 41.979C118.986 43.1642 118.731 43.5446 119.023 43.8964C119.328 44.2617 119.607 44.1586 120.689 43.2799C123.072 41.3452 124.217 41.0802 123.887 42.5392C123.801 42.9178 122.878 46.8541 121.834 51.2866C120.791 55.7191 119.937 59.5033 119.937 59.6963C119.937 59.911 120.601 60.0468 121.652 60.0468C123.012 60.0468 123.4 59.9333 123.529 59.4967C123.619 59.1942 124.193 56.7807 124.806 54.1336C126.435 47.1009 127.241 45.534 130.433 43.1928C132.553 41.6385 133.825 41.3864 133.824 42.5201C133.824 42.909 132.972 46.6935 131.931 50.9298C130.891 55.1661 129.965 58.9506 129.874 59.3395C129.718 60.0107 129.802 60.0465 131.53 60.0412L133.351 60.0352L134.737 54.3798C136.644 46.5982 137.54 44.8471 140.671 42.781C142.264 41.7303 143.521 41.5342 143.813 42.2912C143.914 42.5543 143.187 45.5604 142.197 48.9718C139.777 57.3082 139.587 59.4671 141.18 60.5074C142.528 61.3867 144.328 60.503 147.934 57.1926C149.053 56.1645 149.255 55.8253 148.959 55.4701C148.653 55.1019 148.318 55.2648 146.973 56.4368C146.017 57.2699 145.045 57.8462 144.596 57.8462C143.867 57.8462 143.843 57.7792 144.016 56.1957C144.115 55.2877 145.007 51.8572 146 48.5719C147.928 42.19 148.233 39.9978 147.323 39.0895C146.154 37.9248 142.772 39.0153 140.03 41.4414C139.308 42.0802 138.402 42.8671 138.017 43.19L137.318 43.777L137.623 42.7184C137.79 42.1362 137.928 41.1315 137.928 40.486C137.928 37.1152 133.725 38.2699 128.696 43.0228C127.697 43.9662 126.883 44.6808 126.886 44.6113C126.889 44.5418 127.171 43.4239 127.512 42.1271C127.853 40.8303 128.135 39.5973 128.138 39.3872C128.146 38.7902 127.132 38.4337 126.092 38.6683ZM160.615 39.1031C156.364 40.6165 152.773 45.2398 151.611 50.6971C150.684 55.0522 151.641 58.5016 154.183 59.9707C155.885 60.9541 159.134 60.8548 161.442 59.7488C163.652 58.6893 166.896 55.3239 168.123 52.8161C170.884 47.1739 170.06 41.0742 166.271 39.1106C165.215 38.5633 162.143 38.5592 160.615 39.1031ZM180.379 39.2555C178.515 40.1009 176.84 42.0978 176.587 43.7754C176.289 45.7563 176.86 47.4508 178.569 49.6638C181.408 53.3395 182.115 54.4621 182.111 55.288C182.099 57.3837 180.115 59.1037 177.71 59.1037C175.702 59.1037 174.856 58.3111 174.856 56.4302C174.856 55.3764 174.708 54.9598 174.246 54.7133C172.701 53.89 171.384 54.7951 171.384 56.6811C171.384 58.2231 172.87 59.9126 174.648 60.3917C176.392 60.862 179.786 60.5967 181.324 59.8698C183.103 59.0289 184.804 57.1517 185.261 55.526C185.951 53.0729 185.164 51.0844 182.138 47.6288C179.406 44.5098 178.932 42.4267 180.601 40.8784C181.762 39.8007 182.994 40.0462 184.499 41.6555C185.976 43.2359 187.02 43.4698 187.963 42.432C188.743 41.5738 188.305 40.3436 186.878 39.386C185.501 38.4617 182.272 38.3967 180.379 39.2555ZM214.647 39.1615C208.078 42.0007 202.858 56.3283 207.099 59.8824C209.311 61.7363 213.937 60.1902 218.728 55.9954C220.037 54.8498 220.109 54.7115 219.642 54.2342C219.173 53.7545 218.982 53.823 217.068 55.1557C214.747 56.7722 212.598 57.6446 211.57 57.3881C210.223 57.052 209.891 56.3717 209.891 53.9541V51.6786L213.757 49.7568C215.883 48.6999 218.232 47.3138 218.976 46.6765C221.651 44.3843 222.375 41.3103 220.646 39.5878C219.817 38.7619 219.521 38.6702 217.727 38.6812C216.628 38.6881 215.242 38.9041 214.647 39.1615ZM163.816 41.5052C166.087 43.9269 165.861 51.584 163.397 55.6772C161.139 59.4294 158.072 59.8258 156.347 56.5886C155.868 55.6908 155.761 54.7935 155.765 51.7157C155.77 47.5058 156.062 46.2096 157.567 43.7097C159.462 40.5618 162.068 39.6422 163.816 41.5052ZM217.15 41.1839C218.484 42.5128 217.773 44.9908 215.532 46.8249C214.104 47.9938 210.857 49.7964 210.615 49.555C210.26 49.2019 211.181 45.9399 212.2 43.9408C213.213 41.9529 214.755 40.5552 215.934 40.5552C216.256 40.5552 216.803 40.8381 217.15 41.1839ZM253.603 42.1239C253.835 42.4974 251.739 50.5475 250.932 52.3828C250.245 53.9459 248.314 56.1384 247.053 56.7879C245.652 57.5098 244.288 57.4365 243.611 56.6031C243.177 56.0699 243.031 55.3591 243.031 53.7815C243.031 48.9001 245.924 43.3783 249.077 42.2415C250.371 41.775 253.338 41.6976 253.603 42.1239ZM91.9361 46.9189C95.1091 48.5983 96.8504 51.2775 97.5599 55.5719C98.2069 59.4888 97.0713 64.9744 94.6937 69.4176C91.4295 75.5175 85.6128 78.0398 83.3223 74.3484C81.2363 70.9864 82.2959 62.0972 86.2257 49.9866C86.9274 47.8253 87.5719 45.938 87.6581 45.7928C87.9219 45.3498 90.0092 45.8994 91.9361 46.9189ZM167.4 71.9669C165.744 72.7161 164.423 74.354 163.771 76.466C163.307 77.9675 163.158 78.1404 162.192 78.3014C160.725 78.5456 159.965 79.004 158.761 80.3703C156.698 82.7106 155.684 86.1021 156.561 87.7331C157.073 88.686 158.506 88.4964 160.132 87.2603L161.554 86.1798L161.377 87.2603C161.234 88.1428 161.302 88.3411 161.747 88.3411C162.58 88.3411 164.278 87.453 165.088 86.5944C165.882 85.7522 165.553 85.5538 164.579 86.2876C163.75 86.9126 163.178 86.8846 163.178 86.2191C163.178 85.1448 166.014 73.7919 166.397 73.3323C166.684 72.9877 167.177 72.911 168.272 73.0402C169.984 73.2424 170.833 72.6897 170.122 71.8361C169.608 71.2199 168.986 71.2498 167.4 71.9669ZM193.696 73.2992C193.033 73.6686 192.997 74.7794 193.64 75.0249C194.247 75.2572 195.056 74.6005 195.056 73.8749C195.056 73.1826 194.401 72.9056 193.696 73.2992ZM171.495 78.3133C168.684 79.1153 165.936 85.3149 167.403 87.5454C168.102 88.6071 169.235 88.5716 171.242 87.4247C174.061 85.8145 174.525 84.6057 171.764 86.066C169.868 87.0685 169.079 86.8478 168.92 85.2709C168.829 84.3667 168.962 84.2344 171.079 83.1268C173.272 81.979 173.955 81.3251 174.351 79.9937C174.744 78.6742 173.27 77.8069 171.495 78.3133ZM191.964 78.2963C190.827 78.7506 189.047 80.2068 189.242 80.5222C189.339 80.679 189.843 80.5064 190.362 80.1386C190.881 79.7708 191.388 79.5526 191.49 79.6538C191.591 79.7551 191.291 81.1858 190.821 82.8329C189.874 86.1578 189.835 88.1167 190.712 88.2823C191.388 88.4097 194.109 86.5121 194.109 85.9141C194.109 85.6214 193.75 85.7528 193.008 86.3162C192.175 86.9494 191.867 87.0487 191.742 86.7249C191.651 86.4894 192.056 84.5994 192.641 82.5248C193.867 78.1803 193.77 77.5742 191.964 78.2963ZM197.063 78.6114C195.668 79.2995 194.516 80.3631 194.829 80.6749C194.934 80.7793 195.44 80.5662 195.955 80.2015C197.633 79.0116 197.632 78.9421 195.99 85.9132C194.45 92.4485 194.242 93.0116 193.28 93.2521C191.653 93.6589 192.68 94 195.529 94C197.318 94 198.528 93.873 198.528 93.6856C198.528 93.5127 198.2 93.3712 197.799 93.3712C197.398 93.3712 196.817 93.1864 196.506 92.9603C195.965 92.5661 195.966 92.4608 196.53 90.3667L197.119 88.1839L198.453 88.2893C201.522 88.532 204.475 84.789 204.511 80.6089C204.521 79.4243 204.369 78.8669 203.927 78.4686C203.372 77.9681 203.243 77.9659 202.113 78.4359C201.443 78.7138 200.44 79.3803 199.884 79.9167L198.872 80.8916L198.937 79.5416C198.972 78.799 198.859 78.141 198.686 78.0791C198.512 78.0175 197.782 78.257 197.063 78.6114ZM212.13 78.3221C211.192 78.4771 209.964 78.8874 209.402 79.2335C207.424 80.4511 205.491 83.7477 205.479 85.9254C205.464 88.5565 206.654 88.996 209.156 87.2823L210.701 86.2235L210.577 87.2823C210.479 88.1195 210.566 88.3411 210.992 88.3411C211.818 88.3411 213.519 87.4502 214.325 86.5957C215.267 85.5963 214.902 85.2486 213.81 86.1046C212.728 86.9522 212.415 86.9428 212.418 86.0619C212.421 85.4765 213.331 81.663 214.181 78.6739C214.292 78.285 214.26 77.9832 214.109 78.0033C213.959 78.0235 213.068 78.1671 212.13 78.3221ZM218.738 78.3174C217.685 78.7343 215.887 80.1229 215.887 80.519C215.887 80.6948 216.3 80.5464 216.804 80.1886C217.308 79.8311 217.805 79.5385 217.909 79.5385C218.263 79.5385 218.096 80.6539 217.194 84.3394L216.291 88.0268H217.178C218.034 88.0268 218.086 87.9334 218.619 85.4633C218.923 84.0533 219.466 82.4653 219.825 81.934C220.455 81.0041 222.322 79.5385 222.878 79.5385C223.335 79.5385 223.166 80.8416 222.351 83.6094C221.233 87.4058 221.374 88.6159 222.891 88.2364C223.884 87.9884 226.329 85.8569 225.642 85.8393C225.365 85.8321 224.881 86.109 224.567 86.4548C223.225 87.9324 223.104 86.5334 224.256 82.8395C225.837 77.7701 225.021 76.9404 221.202 79.7327L219.681 80.8453L219.877 79.7988C220.172 78.2237 220.172 78.2096 219.833 78.1055C219.659 78.0524 219.166 78.1476 218.738 78.3174ZM231.78 78.3133C228.969 79.1153 226.221 85.3149 227.688 87.5454C228.386 88.6071 229.519 88.5716 231.526 87.4247C234.345 85.8145 234.81 84.6057 232.049 86.066C230.153 87.0685 229.363 86.8478 229.205 85.2709C229.114 84.3667 229.247 84.2344 231.363 83.1268C233.557 81.979 234.239 81.3251 234.636 79.9937C235.029 78.6742 233.554 77.8069 231.78 78.3133ZM238.296 78.4831C237.144 78.9657 235.772 80.0867 235.772 80.5457C235.772 80.6938 236.196 80.5024 236.715 80.1204C237.234 79.7384 237.745 79.5124 237.851 79.6183C238.01 79.7768 236.815 85.512 236.213 87.4766C236.081 87.9104 236.234 88.0268 236.937 88.0268C237.797 88.0268 237.85 87.9328 238.413 85.4331C238.734 84.0064 239.194 82.4578 239.436 81.9913C240.005 80.89 242.022 79.3501 242.4 79.7271C242.572 79.8981 242.315 81.4622 241.761 83.6267C240.638 88.0132 240.637 88.0268 241.572 88.0268C242.251 88.0268 242.387 87.7699 243.006 85.3133C243.382 83.8213 243.903 82.1881 244.164 81.6841C244.589 80.8667 246.276 79.5429 246.898 79.5397C247.313 79.5375 247.155 80.6155 246.345 83.311C245.152 87.2826 245.311 88.6527 246.916 88.2088C247.816 87.9595 249.842 86.2178 249.559 85.9361C249.439 85.8167 249.013 86.026 248.612 86.4011C247.876 87.0902 247.134 87.3024 247.134 86.8236C247.134 86.6809 247.561 85.0524 248.081 83.2051C248.602 81.3578 249.028 79.5092 249.028 79.0971C249.028 77.5937 247.425 77.8087 245.393 79.585L244.214 80.6168L244.426 79.656C244.886 77.5673 243.177 77.6135 240.798 79.7541L239.479 80.9412L239.7 79.6435C239.82 78.9295 239.801 78.2728 239.658 78.1841C239.513 78.0955 238.901 78.23 238.296 78.4831ZM257.264 78.3221C256.326 78.4771 255.099 78.8874 254.537 79.2335C252.559 80.4511 250.626 83.7477 250.613 85.9254C250.598 88.5565 251.789 88.996 254.29 87.2823L255.836 86.2235L255.711 87.2823C255.613 88.1195 255.7 88.3411 256.126 88.3411C256.952 88.3411 258.653 87.4502 259.459 86.5957C260.402 85.5963 260.037 85.2486 258.945 86.1046C257.863 86.9522 257.549 86.9428 257.553 86.0619C257.556 85.4765 258.465 81.663 259.316 78.6739C259.427 78.285 259.394 77.9832 259.244 78.0033C259.094 78.0235 258.203 78.1671 257.264 78.3221ZM162.664 80.3483C162.588 82.1661 161.572 84.9593 160.655 85.8726C158.165 88.3521 157.087 85.3055 159.078 81.4175C159.833 79.945 160.862 79.1735 161.915 79.2923C162.577 79.3668 162.698 79.5372 162.664 80.3483ZM172.591 79.9468C172.755 80.8067 171.834 81.9724 170.424 82.6892L169.157 83.3327L169.368 82.4572C169.64 81.3282 170.427 79.762 170.876 79.458C171.464 79.0593 172.476 79.3476 172.591 79.9468ZM232.875 79.9468C233.04 80.8067 232.119 81.9724 230.709 82.6892L229.442 83.3327L229.653 82.4572C229.925 81.3282 230.712 79.762 231.161 79.458C231.749 79.0593 232.76 79.3476 232.875 79.9468ZM202.947 81.2676C202.947 82.7219 202.106 85.1282 201.162 86.3763C200.562 87.1701 200.155 87.398 199.34 87.398C197.76 87.398 197.434 86.8104 197.906 84.811C198.402 82.7096 198.876 81.7904 199.999 80.7567C201.678 79.2106 202.947 79.4306 202.947 81.2676ZM211.968 80.614C211.503 83.0781 210.728 85.0404 209.887 85.878C207.527 88.2286 206.242 85.5488 208.031 82.0048C208.782 80.5159 210.05 79.5385 211.231 79.5385C212.129 79.5385 212.161 79.5853 211.968 80.614ZM257.102 80.614C256.638 83.0781 255.862 85.0404 255.022 85.878C252.662 88.2286 251.377 85.5488 253.165 82.0048C253.916 80.5159 255.185 79.5385 256.365 79.5385C257.264 79.5385 257.296 79.5853 257.102 80.614Z" fill="white"/>
</svg>
