<svg width="64" height="63" viewBox="0 0 64 63" fill="none" xmlns="http://www.w3.org/2000/svg">
<g id="Group">
<path id="telephone_126523 1 (Traced)" fill-rule="evenodd" clip-rule="evenodd" d="M5.37445 4.71157C2.79981 7.46484 0.694458 11.877 0.694458 14.5156C0.694458 33.1829 29.7862 62.4286 48.3576 62.4286C54.3098 62.4286 63.123 54.3915 63.123 48.9629C63.123 45.5975 51.591 34.3119 48.1531 34.3119C47.2037 34.3119 45.2232 35.7718 43.7486 37.5561C39.7661 42.3771 36.7244 41.5703 29.1016 33.6674C21.4078 25.6931 20.7512 23.0891 25.4506 19.1722C29.8335 15.5192 29.5687 14.0787 23.1063 6.3618C16.4501 -1.58656 11.6797 -2.02993 5.37445 4.71157ZM20.0473 9.41787C24.7725 14.4702 24.8608 15.0455 21.4982 18.7786C16.2951 24.5554 16.9474 26.8502 26.527 36.4747C36.1259 46.1188 38.3862 46.7589 44.1986 41.473C48.0002 38.0168 48.5255 38.1293 53.9245 43.5536C59.5043 49.1575 59.5431 49.3868 55.6617 53.6951C50.069 59.9046 41.7983 59.1779 30.1973 51.4588C11.1416 38.7781 0.22732 17.2429 8.30644 8.27157C13.1888 2.85155 13.981 2.92941 20.0473 9.41787Z" fill="black"/>
</g>
</svg>
