<svg width="63" height="63" viewBox="0 0 63 63" fill="none" xmlns="http://www.w3.org/2000/svg">
<g id="Group">
<path id="Vector" fill-rule="evenodd" clip-rule="evenodd" d="M53.3111 9.10674C47.4471 3.23749 39.651 0.00261088 31.3458 0C14.2315 0 0.302429 13.9264 0.294596 31.0486C0.291985 36.521 1.72275 41.8628 4.44067 46.5728L0.0335083 62.6611L16.4925 58.3427C21.0276 60.8178 26.1345 62.1206 31.3301 62.1232H31.3432C48.4549 62.1232 62.3865 48.1942 62.3943 31.0721C62.3996 22.7773 59.1725 14.9734 53.3111 9.10674ZM31.3458 56.878H31.3353C26.7036 56.878 22.1633 55.6326 18.2 53.2802L17.2575 52.7215L7.49018 55.2827L10.0984 45.7583L9.48489 44.7818C6.90012 40.6723 5.53724 35.9231 5.53985 31.0486C5.54507 16.8193 17.1243 5.24264 31.3588 5.24264C38.2515 5.24264 44.7317 7.93185 49.6036 12.809C54.4755 17.6887 57.1569 24.1715 57.1543 31.0668C57.1465 45.3014 45.5698 56.878 31.3458 56.878ZM45.502 37.5497C44.7265 37.1606 40.912 35.2834 40.1993 35.0249C39.4891 34.7665 38.9721 34.6359 38.4526 35.4113C37.933 36.1868 36.45 37.9361 35.9957 38.4556C35.5441 38.9726 35.0898 39.0379 34.3143 38.6488C33.5389 38.2598 31.0377 37.4426 28.0743 34.7978C25.7689 32.7404 24.2102 30.2 23.7586 29.422C23.3069 28.6439 23.7116 28.2262 24.098 27.8398C24.4478 27.4925 24.8734 26.9338 25.2624 26.4795C25.6541 26.0305 25.782 25.7067 26.0431 25.1871C26.3016 24.6702 26.1736 24.2159 25.9778 23.8269C25.782 23.4405 24.2311 19.6208 23.5862 18.0673C22.957 16.553 22.3174 16.7592 21.8396 16.7357C21.3879 16.7122 20.8709 16.7096 20.3514 16.7096C19.8344 16.7096 18.9937 16.9028 18.2835 17.6809C17.5734 18.4589 15.5682 20.3361 15.5682 24.1532C15.5682 27.973 18.3488 31.6621 18.7352 32.1791C19.1216 32.696 24.205 40.5339 31.988 43.8941C33.8392 44.693 35.2856 45.1708 36.4109 45.5285C38.2698 46.1186 39.9617 46.035 41.2984 45.8366C42.7892 45.6147 45.8884 43.9594 46.5359 42.1474C47.1834 40.3355 47.1834 38.7794 46.9875 38.4582C46.7943 38.1319 46.2774 37.9387 45.502 37.5497Z" fill="black"/>
</g>
</svg>
