<svg version="1.2" xmlns="http://www.w3.org/2000/svg" viewBox="0 0 512 512" width="512" height="512">
	<title>file</title>
	<style>
		.s0 { fill: #000000 } 
	</style>
	<path id="Path 0" fill-rule="evenodd" class="s0" d="m42.5 0h427l3.5 2.8c1.9 1.6 4.3 4.5 5.3 6.5 1.4 3.1 1.7 6.6 1.7 38.7h9.5c8.8 0 9.7 0.2 14.5 5v86l-2.5 2.5c-2.2 2.3-3.1 2.5-21.5 2.5l0.5 296.3 3.3 1.1c1.8 0.6 5.1 2.6 7.2 4.3 2.2 1.8 4.8 5 5.9 7 1 2.1 4.8 14.3 8.5 27 3.6 12.8 6.6 24.2 6.6 25.3 0 1.1-1.1 3.1-4.9 7h-150.1l-2.5-2.5c-1.4-1.4-2.5-3.5-2.5-4.8 0-1.2 0.9-5.1 2-8.7 1.1-3.6 2-6.8 2-7.3 0-0.4-45-0.7-100-0.7-55 0-100 0.3-100 0.7 0 0.5 0.9 3.7 2 7.3 1.1 3.6 2 7.5 2 8.7 0 1.3-1.1 3.4-4.9 7.3h-150.1l-2.5-2.5c-1.4-1.4-2.5-3.4-2.5-4.5 0-1.1 3-12.5 6.6-25.3 3.7-12.7 7.5-24.9 8.5-27 1.1-2 3.7-5.2 5.9-7 2.1-1.7 5.4-3.7 10.5-5.4l0.5-296.3h-9.5c-8.8 0-9.7-0.2-14.5-5v-86l2.5-2.5c2.2-2.3 3.1-2.5 21.5-2.5v-17.5c0-12.2 0.4-18.5 1.3-20.8 0.8-1.7 3.1-4.7 5.3-6.5zm5.5 48.1h416v-32h-416zm-24 40h379c4 4 5 6.1 5 8 0 1.8-1 3.9-2.5 5.5l-2.4 2.5h-379.1v24h464v-24h-43c-4.1-4.1-5-6.2-5-8 0-1.9 0.9-4 2.4-5.5l2.5-2.5h43.1v-24h-464zm24 80h75l5 5v54l-4.9 5h-75.1v160c34.8 0 35 0 37.5 2.5l2.5 2.5v43h24v-96c-34.9 0-35-0.1-37.5-2.5l-2.5-2.5v-54l4.9-5 54.6-0.2c8.9-14 15.3-21.6 22.5-28.9 7.5-7.6 14.8-13.8 21-17.9 5.2-3.4 12.9-8 17-10 4.1-2.1 11.5-5.2 16.5-7 4.9-1.7 13.5-4.1 19-5.3 8.2-1.8 13.3-2.1 28.5-2.1 15.2 0 20.3 0.3 28.5 2.1 5.5 1.2 14 3.6 19 5.3 4.9 1.8 12.4 4.9 16.5 7 4.1 2 11.5 6.4 16.5 9.7 4.9 3.4 12.8 9.6 17.4 13.9 4.6 4.3 11.5 11.9 15.3 16.9 3.8 4.9 7.9 10.7 9.1 12.7l2.2 3.8h54.5l5 5v54c-4.9 4.9-5.1 5-22.5 5h-17.5v96h24c0-43 0-43 2.4-45.5 2.5-2.5 2.6-2.5 20-2.5h17.6v-160h-75l-5-5v-54l4.9-5h75.1v-24h-416zm0 48h64v-32h-64zm352 0h64v-32h-64zm-169.5 10.6c-4.4 0.9-11.8 2.9-16.5 4.6-4.7 1.6-11.7 4.6-15.5 6.5-3.9 1.9-9.7 5.3-13 7.6-3.3 2.2-7.4 5.1-9 6.4-1.7 1.3-6.8 6.1-11.3 10.6-4.6 4.5-11 12-14.2 16.7-3.2 4.6-7.3 11.6-9.3 15.5-1.9 3.8-4.7 10.3-6.2 14.5-1.5 4.1-3.6 11.3-4.7 16-1.7 7.1-2.1 13.1-2.6 38-0.5 25.2-0.3 29.3 0.9 28.5 0.7-0.5 3.4-2.3 5.9-4 2.5-1.6 7.4-4.2 11-5.7 3.6-1.5 10-3.4 14.2-4.3 4.3-0.8 11.3-1.5 15.5-1.5 4.3 0 10 0.5 12.8 0.9 2.7 0.5 5.1 0.7 5.2 0.4 0.2-0.2-0.9-2.7-2.4-5.6-1.4-2.9-3.5-7.7-4.5-10.7-1-3.1-2.1-8.5-2.5-12-0.3-3.8 0-9.1 0.7-12.5 0.6-3.3 2.4-8.7 3.9-12 1.5-3.3 3.8-6.9 5-8 1.9-1.7 4-2.1 11.4-2.4 5.1-0.2 11.9 0.2 15.2 0.7 3.3 0.6 6.1 1 6.2 0.9 0.2-0.1-0.4-4.3-1.3-9.2-1.1-6.1-1.5-11.4-1-16.3 0.3-4 1.5-9.8 2.7-13 1.2-3.2 3.6-8 5.4-10.7 1.7-2.8 5.1-6.9 7.6-9.1 2.4-2.2 6.6-5.3 9.4-6.9 3.7-2.1 5.7-2.7 8-2.2 2.1 0.4 7.3 4.9 17.5 14.9 8 7.9 18.2 18.8 22.8 24.3 4.6 5.5 10.9 13.8 14.1 18.5 3.2 4.6 7.5 11.7 9.4 15.7 2 4 4.4 10.1 5.3 13.5 1.1 4.4 1.4 8.3 1 13.3-0.3 3.8-1.4 9.4-2.4 12.5-1.1 3-3.1 7.8-4.6 10.7-1.4 2.9-2.5 5.4-2.4 5.7 0.2 0.2 3-0.1 6.3-0.6 3.3-0.6 10.5-0.8 16-0.5 5.5 0.3 13.2 1.5 17.2 2.6 4 1.1 9.6 3.2 12.5 4.7 2.9 1.4 7.3 4 9.7 5.7l4.4 3.2c-1-54.4-1.4-60.4-3.1-67.5-1.1-4.7-3.3-11.9-4.8-16-1.5-4.2-4.3-10.7-6.2-14.5-1.9-3.9-5.3-9.7-7.5-13-2.2-3.3-5.1-7.4-6.5-9-1.3-1.7-6.1-6.8-10.5-11.3-4.5-4.6-12-11-16.7-14.2-4.7-3.2-11.7-7.4-15.5-9.3-3.9-1.9-10.4-4.7-14.5-6.2-4.1-1.5-11.3-3.6-16-4.6-5.6-1.3-13.6-2.1-23-2.4-8-0.2-16.1-0.2-18 0.1-1.9 0.2-7.1 1.1-11.5 2zm12.4 54.1c-1.1 2.6-2.3 7.2-2.6 10.3-0.4 3.8 0.4 10.1 2.5 21.5 2.6 13.3 2.9 16.4 1.9 18.4-0.7 1.4-2.4 3.2-3.9 4-2.5 1.5-3.3 1.4-11-1.3-5.2-1.7-11.6-3.1-17-3.5l-8.7-0.6c-2.4 5.8-3.4 9.4-3.7 11.7-0.4 2.3-0.1 7 0.6 10.3 0.7 3.3 2.5 8.5 4.1 11.7 1.6 3.2 4.6 7.6 6.6 9.9 2.1 2.3 5.6 5.5 7.8 7 2.2 1.6 4.2 2.9 4.5 2.9 0.3 0 0.5-3.1 0.5-6.8 0-5.7 0.5-7.7 3.5-13.2 2.3-4.4 6.7-9.8 13.2-16.3 5.4-5.4 10.8-10 12-10.4 1.3-0.3 3.5-0.3 5 0 1.7 0.4 6.7 4.5 12.5 10.4 6.6 6.5 10.9 11.9 13.3 16.3 2.9 5.5 3.4 7.5 3.4 13.2 0.1 3.7 0.3 6.8 0.6 6.8 0.3 0 2.3-1.3 4.5-2.9 2.2-1.5 5.7-4.7 7.7-7 2.1-2.3 5.1-6.7 6.7-9.9 1.5-3.2 3.4-8.4 4.1-11.7 0.6-3.3 0.9-8.1 0.6-10.5-0.4-2.5-2.2-7.7-4.1-11.5-1.8-3.9-5.9-10.6-9.1-15-3.1-4.4-8.9-11.9-12.8-16.5-3.9-4.7-12.3-13.8-18.6-20.3-6.3-6.5-11.8-11.8-12.1-11.8-0.4 0-2.7 2.3-5.3 5.1-2.5 2.7-5.5 7.1-6.7 9.7zm-154.9 47.3h26c0.9-4.3 2.1-9.1 3.2-13.5 1.1-4.4 2.8-10.2 3.9-12.8 1-2.6 1.9-5 1.9-5.2 0-0.3-7.9-0.5-17.5-0.5h-17.5zm302.5-27.3c0.9 2.1 2.6 7.8 3.9 12.8 1.3 4.9 2.7 10.2 3 11.7l0.6 2.8h26v-32c-27.1 0-35 0.2-35 0.5 0 0.2 0.7 2.1 1.5 4.2zm-148.8 70.5c-0.9 2.1-1.7 4.4-1.7 5.3 0 1.2 0.7 1.3 3.7 0.7 2.1-0.4 7.6-0.7 12.3-0.7 4.7 0 10.2 0.3 12.2 0.7 3 0.6 3.8 0.5 3.8-0.7 0-0.9-0.8-3.2-1.8-5.3-0.9-2.1-4.4-6.6-7.7-10-3.3-3.5-6.3-6.3-6.7-6.3-0.3 0-3.2 2.9-6.5 6.3-3.2 3.4-6.6 7.9-7.6 10zm-88.2 24.8c-3.3 1.1-8.4 3.7-11.2 5.9-2.9 2.1-6.8 5.7-8.8 7.9-1.9 2.3-3.5 4.6-3.5 5.2 0 0.6 12.4 1 35.2 1h35.3c2-6.6 3.5-10 4.6-11.8 1-1.8 1.9-3.5 1.9-3.7 0-0.3-1.9-1.5-4.3-2.7-2.3-1.1-7.6-2.9-11.7-4-4.5-1.1-10.6-1.8-15-1.7-4.1 0-9.5 0.5-12 1-2.5 0.4-7.2 1.8-10.5 2.9zm80.1 1.8c-2.7 1.4-6.7 4.3-8.8 6.4-2.1 2.1-4.7 5.6-5.8 7.8l-2 4h78c-3.1-6.2-5.8-9.7-7.9-11.8-2.1-2.1-6-5-8.7-6.4-2.7-1.5-7.6-3.4-10.9-4.3-3.3-0.8-8.7-1.5-12-1.5-3.3 0.1-8.5 0.8-11.5 1.6-3 0.8-7.7 2.7-10.4 4.2zm75.6 0c-2.3 1.2-4.2 2.4-4.2 2.7 0 0.2 0.8 1.9 1.9 3.7 1 1.8 2.5 5.2 3.2 7.5l1.4 4.3c58 0 70.5-0.4 70.5-1 0-0.6-1.5-2.9-3.3-5.2-1.8-2.3-5.7-5.9-8.7-8-3-2-9.1-4.9-13.5-6.4-6.1-2-10.6-2.8-18.5-3.1-8.1-0.3-12.1 0.1-17.5 1.5-3.9 1.1-8.9 2.9-11.3 4zm-261.2 42.2h24v-32h-24zm392 0h24v-32h-24zm-312-4c0 3.8 0.2 4 5.1 6.2 2.9 1.2 6.6 3.8 8.3 5.8 1.8 1.9 3.9 5.5 4.8 8 1 2.4 2.4 7 3.2 10.2l1.6 5.8h210c2.4-9 3.8-13.6 4.6-16 1-2.6 3.6-6.4 6.3-9.1 2.5-2.5 6.2-4.9 8.1-5.5 3.2-0.9 3.5-1.3 3.7-5.2l0.3-4.2h-256zm-104 41c-2.8 9.6-5 17.8-5 18.2 0 0.4 27.4 0.8 61 0.8 33.5 0 61-0.4 61-0.8 0-0.4-2.3-8.6-5-18.2-3.8-13.3-5.5-18-7.3-19.3-2.1-1.7-5.5-1.8-48.9-1.8-42.8 0.1-46.7 0.2-48.7 1.8-1.6 1.3-3.5 6.6-7.1 19.3zm352 0c-2.8 9.6-5 17.8-5 18.2 0 0.4 27.4 0.8 61 0.8 33.5 0 61-0.4 61-0.8 0-0.4-2.1-7.9-4.6-16.7-2.5-8.8-5.2-17.2-5.9-18.5-0.7-1.4-2-2.9-2.9-3.3-0.9-0.4-22.5-0.7-48-0.7-42.7 0-46.5 0.1-48.5 1.7-1.5 1.2-3.6 6.9-7.1 19.3z"/>
</svg>